<?xml version="1.0" encoding="utf-8"?>
<!-- Generator: Adobe Illustrator 27.2.0, SVG Export Plug-In . SVG Version: 6.00 Build 0)  -->
<svg version="1.1" id="Layer_1" xmlns="http://www.w3.org/2000/svg" xmlns:xlink="http://www.w3.org/1999/xlink" x="0px" y="0px"
	 viewBox="0 0 111.04 108.38" style="enable-background:new 0 0 111.04 108.38;" xml:space="preserve">
<style type="text/css">
	.st0{fill:#6A696E;}
	.st1{fill:#69696B;}
</style>
<g>
	<g>
		<g>
			<g>
				<g>
					<path class="st0" d="M47.53,33.01c-0.32,0-0.62-0.22-0.71-0.55L45.09,26c-0.11-0.39,0.13-0.8,0.52-0.9
						c0.39-0.1,0.8,0.13,0.9,0.52l1.55,5.75l5.75-1.55c0.39-0.11,0.8,0.13,0.9,0.52c0.11,0.39-0.13,0.8-0.52,0.9l-6.46,1.74
						C47.66,33.01,47.6,33.01,47.53,33.01z"/>
				</g>
			</g>
		</g>
		<g>
			<g>
				<g>
					<path class="st0" d="M69.43,60.37c-0.37,0-0.68-0.27-0.73-0.65c-0.05-0.4,0.24-0.77,0.64-0.82c4.43-0.54,8.44-2.5,11.6-5.66
						c7.74-7.74,7.74-20.33,0-28.07c-7.74-7.74-20.33-7.74-28.07,0c-2.1,2.1-3.67,4.58-4.66,7.35c-0.14,0.38-0.56,0.58-0.94,0.45
						c-0.38-0.14-0.58-0.56-0.45-0.94c1.06-2.98,2.75-5.64,5-7.9c8.31-8.31,21.84-8.31,30.15,0c8.31,8.31,8.31,21.84,0,30.15
						c-3.4,3.4-7.71,5.5-12.46,6.08C69.49,60.37,69.46,60.37,69.43,60.37z"/>
				</g>
			</g>
		</g>
	</g>
	<g>
		<g>
			<g>
				<g>
					<path class="st0" d="M63.68,40.13h3.81c0.38,0,0.67,0.08,0.87,0.23c0.2,0.16,0.3,0.37,0.3,0.63c0,0.24-0.08,0.44-0.24,0.61
						c-0.16,0.17-0.4,0.25-0.72,0.25h-5.37c-0.36,0-0.65-0.1-0.85-0.3c-0.2-0.2-0.31-0.44-0.31-0.71c0-0.17,0.07-0.41,0.2-0.7
						c0.13-0.29,0.27-0.52,0.43-0.68c0.65-0.67,1.23-1.25,1.75-1.72c0.52-0.48,0.89-0.79,1.12-0.94c0.4-0.28,0.73-0.57,1-0.85
						c0.26-0.28,0.47-0.58,0.61-0.88c0.14-0.3,0.21-0.59,0.21-0.88c0-0.31-0.07-0.59-0.22-0.83c-0.15-0.25-0.35-0.44-0.61-0.57
						c-0.26-0.14-0.53-0.2-0.83-0.2c-0.64,0-1.14,0.28-1.5,0.84c-0.05,0.07-0.13,0.27-0.24,0.6c-0.11,0.33-0.24,0.58-0.39,0.75
						c-0.14,0.18-0.35,0.26-0.63,0.26c-0.24,0-0.44-0.08-0.61-0.24c-0.16-0.16-0.24-0.38-0.24-0.66c0-0.34,0.08-0.69,0.23-1.05
						c0.15-0.36,0.38-0.7,0.67-0.99c0.3-0.3,0.68-0.54,1.14-0.72c0.46-0.18,1-0.27,1.62-0.27c0.74,0,1.38,0.12,1.9,0.35
						c0.34,0.16,0.64,0.37,0.9,0.64c0.26,0.27,0.46,0.59,0.6,0.94c0.14,0.36,0.22,0.73,0.22,1.11c0,0.6-0.15,1.15-0.45,1.64
						c-0.3,0.49-0.6,0.88-0.92,1.16c-0.31,0.28-0.83,0.72-1.56,1.32c-0.73,0.6-1.23,1.06-1.51,1.39
						C63.92,39.79,63.8,39.94,63.68,40.13z"/>
				</g>
			</g>
		</g>
		<g>
			<g>
				<g>
					<path class="st0" d="M74.45,40.92v-1.36h-3.66c-0.46,0-0.81-0.1-1.04-0.31c-0.23-0.21-0.35-0.49-0.35-0.85
						c0-0.09,0.02-0.19,0.05-0.28c0.03-0.09,0.09-0.19,0.15-0.3c0.07-0.1,0.14-0.21,0.21-0.3c0.07-0.1,0.16-0.22,0.27-0.36
						l3.86-5.17c0.25-0.34,0.46-0.59,0.62-0.74c0.16-0.15,0.36-0.23,0.59-0.23c0.74,0,1.11,0.42,1.11,1.27v5.64h0.31
						c0.37,0,0.67,0.05,0.9,0.15c0.23,0.1,0.34,0.33,0.34,0.67c0,0.28-0.09,0.49-0.28,0.62c-0.18,0.13-0.46,0.19-0.83,0.19h-0.44
						v1.36c0,0.37-0.08,0.65-0.25,0.83c-0.17,0.18-0.39,0.27-0.66,0.27c-0.27,0-0.49-0.09-0.66-0.28
						C74.54,41.56,74.45,41.29,74.45,40.92z M71.32,37.93h3.14V33.7L71.32,37.93z"/>
				</g>
			</g>
		</g>
	</g>
	<path class="st0" d="M27.19,68.79c2.4,0,4.36-1.96,4.36-4.36v-7.36c0-1.9-1.22-3.52-2.92-4.11c1.76-6.36,7.65-10.9,14.3-10.9h2.16
		c6.65,0,12.54,4.54,14.3,10.9c-1.7,0.6-2.92,2.22-2.92,4.11v7.36c0,1.89,1.2,3.49,2.88,4.1c-1.51,5.23-5.87,9.31-11.19,10.44
		c-0.51-1.47-1.91-2.53-3.55-2.53c-2.07,0-3.76,1.69-3.76,3.76s1.69,3.76,3.76,3.76c1.93,0,3.52-1.46,3.73-3.33
		c6.06-1.23,11.03-5.88,12.66-11.85c2.32-0.09,4.19-2.01,4.19-4.36v-7.36c0-2.33-1.84-4.24-4.14-4.35
		c-1.89-7.18-8.49-12.32-15.96-12.32h-2.16c-7.47,0-14.07,5.14-15.96,12.32c-2.3,0.11-4.14,2.02-4.14,4.35v7.36
		C22.83,66.84,24.78,68.79,27.19,68.79z M44.61,82.31c-1.16,0-2.1-0.94-2.1-2.1c0-1.16,0.94-2.1,2.1-2.1c1.16,0,2.1,0.94,2.1,2.1
		C46.71,81.36,45.77,82.31,44.61,82.31z M63.54,57.07v7.36c0,1.49-1.21,2.7-2.7,2.7c-1.49,0-2.7-1.21-2.7-2.7v-7.36
		c0-1.49,1.21-2.7,2.7-2.7C62.33,54.37,63.54,55.58,63.54,57.07z M24.49,57.07c0-1.49,1.21-2.7,2.7-2.7c1.49,0,2.7,1.21,2.7,2.7
		v7.36c0,1.49-1.21,2.7-2.7,2.7c-1.49,0-2.7-1.21-2.7-2.7V57.07z"/>
	<path class="st0" d="M44.01,74.99c6.3,0,11.43-6.39,11.43-14.24c0-7.85-5.13-14.24-11.43-14.24S32.59,52.9,32.59,60.75
		C32.59,68.61,37.71,74.99,44.01,74.99z M44.01,48.17c5.39,0,9.77,5.64,9.77,12.58c0,6.94-4.38,12.58-9.77,12.58
		c-5.39,0-9.77-5.64-9.77-12.58C34.25,53.81,38.63,48.17,44.01,48.17z"/>
	<path class="st0" d="M62.39,89.37v-2.34c0-3.57-1.83-6.83-4.89-8.73c-0.39-0.24-0.9-0.12-1.14,0.27c-0.24,0.39-0.12,0.9,0.27,1.14
		c2.57,1.59,4.1,4.32,4.1,7.31v1.79H27.18v-1.79c0-4.74,3.85-8.59,8.59-8.59h2.91c0.46,0,0.83-0.37,0.83-0.83s-0.37-0.83-0.83-0.83
		h-2.91c-5.65,0-10.25,4.6-10.25,10.25v2.34c0,0.62,0.5,1.12,1.12,1.12h34.63C61.89,90.48,62.39,89.98,62.39,89.37z"/>
</g>
</svg>
