<svg xmlns="http://www.w3.org/2000/svg" xmlns:xlink="http://www.w3.org/1999/xlink" id="Layer_1" x="0" y="0" version="1.1" viewBox="0 0 16 16" style="enable-background:new 0 0 16 16" xml:space="preserve"><style type="text/css">.st0{fill:#ce3f3e}.st1{fill:#fff}</style><rect width="16" height="16" class="st0"/><path d="M16,11.39c0,0.55,0,1.11,0,1.66c-5.05,0.02-10.09,0.03-15.14,0.05c-0.18,0-0.35-0.06-0.53-0.18	c-0.18-0.12-0.24-0.24-0.29-0.47c-0.06-0.18-0.06-0.35,0.06-0.53c0.06-0.18,0.18-0.29,0.35-0.41l11.52-6.29	C7.98,5.22,3.99,5.21,0,5.2c0-0.54,0-1.09,0-1.63c5.05,0,10.09,0.01,15.14,0.01c0.18,0,0.35,0.06,0.53,0.18	c0.18,0.12,0.24,0.24,0.29,0.41c0.06,0.18,0.06,0.35-0.06,0.53c-0.06,0.18-0.18,0.29-0.35,0.41L4.03,11.46	C8.02,11.44,12.01,11.41,16,11.39z" class="st1"/></svg>