<?xml version="1.0" encoding="utf-8"?>
<!-- Generator: Adobe Illustrator 27.2.0, SVG Export Plug-In . SVG Version: 6.00 Build 0)  -->
<svg version="1.1" id="Layer_1" xmlns="http://www.w3.org/2000/svg" xmlns:xlink="http://www.w3.org/1999/xlink" x="0px" y="0px"
	 viewBox="0 0 16 16" style="enable-background:new 0 0 16 16;" xml:space="preserve">
<style type="text/css">
	.st0{fill:#CE3F3E;}
	.st1{fill:#FFFFFF;}
</style>
<rect class="st0" width="16" height="16"/>
<path class="st1" d="M16,11.39c0,0.55,0,1.11,0,1.66c-5.05,0.02-10.09,0.03-15.14,0.05c-0.18,0-0.35-0.06-0.53-0.18
	c-0.18-0.12-0.24-0.24-0.29-0.47c-0.06-0.18-0.06-0.35,0.06-0.53c0.06-0.18,0.18-0.29,0.35-0.41l11.52-6.29
	C7.98,5.22,3.99,5.21,0,5.2c0-0.54,0-1.09,0-1.63c5.05,0,10.09,0.01,15.14,0.01c0.18,0,0.35,0.06,0.53,0.18
	c0.18,0.12,0.24,0.24,0.29,0.41c0.06,0.18,0.06,0.35-0.06,0.53c-0.06,0.18-0.18,0.29-0.35,0.41L4.03,11.46
	C8.02,11.44,12.01,11.41,16,11.39z"/>
</svg>
