<svg xmlns="http://www.w3.org/2000/svg" xmlns:xlink="http://www.w3.org/1999/xlink" id="Layer_1" x="0" y="0" version="1.1" viewBox="0 0 111.04 108.38" style="enable-background:new 0 0 111.04 108.38" xml:space="preserve"><style type="text/css">.st0{fill:#6a696e}</style><g id="search-car_3_"><g><path d="M81.99,81.68h-6.91v-1c0-3.79-3.09-6.88-6.88-6.88s-6.88,3.09-6.88,6.88v1H43.56v-1 c0-3.79-3.09-6.88-6.88-6.88c-3.79,0-6.88,3.09-6.88,6.88v1l-1.2-0.02l-6.28-1.2c-1.57-0.31-2.63-1.84-2.36-3.42l0.9-5.25h2.03 c0.53,0,0.97-0.44,0.97-0.97c0-0.54-0.44-0.97-0.97-0.97h-1.96l-0.04-3.87c-0.01-1.39,0.93-2.58,2.27-2.9l4.29-1.03 c0.75-0.6,3.64-2.91,4.87-3.74c0.87-0.59,3.87-2.27,6.19-2.27h11.4c0.94,0,3.75,0.24,5.44,1.33L64.16,62l16.36,3.38 c0.94,0.19,1.73,0.83,2.11,1.71l2.08,4.71c0.17,0.38,0.26,0.79,0.26,1.2v5.71C84.96,80.35,83.63,81.68,81.99,81.68z M77.03,79.68 h4.97c0.54,0,0.97-0.44,0.97-0.97v-5.71c0-0.13-0.03-0.27-0.08-0.39l0,0L80.8,67.9c-0.12-0.29-0.38-0.49-0.68-0.56l-16.76-3.5 l-9.02-4.74c-1.25-0.8-3.56-1.06-4.43-1.06h-11.4c-1.58,0-4.08,1.26-5.07,1.93c-1.06,0.72-3.67,2.79-4.91,3.78l-0.18,0.14 l-4.72,1.13c-0.44,0.11-0.74,0.5-0.74,0.95l0.02,1.89c1.63,0.01,2.95,1.34,2.95,2.97c0,1.64-1.33,2.97-2.97,2.97h-0.34l-0.62,3.59 c-0.09,0.52,0.26,1.02,0.77,1.12l5.18,0.99c0.58-4.34,4.31-7.69,8.8-7.69c4.56,0,8.33,3.45,8.82,7.88h13.87 c0.5-4.43,4.27-7.88,8.82-7.88S76.53,75.25,77.03,79.68z" class="st0"/><path d="M36.68,85.62c-2.72,0-4.94-2.22-4.94-4.94s2.22-4.94,4.94-4.94s4.94,2.22,4.94,4.94S39.41,85.62,36.68,85.62z M36.68,77.74c-1.62,0-2.94,1.32-2.94,2.94c0,1.62,1.32,2.94,2.94,2.94c1.62,0,2.94-1.32,2.94-2.94 C39.62,79.06,38.3,77.74,36.68,77.74z" class="st0"/><path d="M68.2,85.62c-2.72,0-4.94-2.22-4.94-4.94s2.22-4.94,4.94-4.94c2.72,0,4.94,2.22,4.94,4.94 S70.93,85.62,68.2,85.62z M68.2,77.74c-1.62,0-2.94,1.32-2.94,2.94c0,1.62,1.32,2.94,2.94,2.94s2.94-1.32,2.94-2.94 C71.14,79.06,69.82,77.74,68.2,77.74z" class="st0"/></g><path d="M80.02,52.13c-0.46,0-0.91-0.1-1.33-0.31L65.4,45.17c-2.83,3.18-6.79,4.99-10.99,4.99 c-8.16,0-14.79-6.63-14.79-14.79c0-8.16,6.63-14.79,14.79-14.79c8.16,0,14.79,6.63,14.79,14.79c0,1.58-0.26,3.15-0.77,4.67 l12.92,6.46c1.46,0.73,2.06,2.52,1.33,3.98C82.17,51.5,81.15,52.13,80.02,52.13z M64.87,42.67l14.72,7.36 c0.47,0.23,1.07,0.03,1.3-0.44c0.24-0.48,0.04-1.06-0.44-1.3L65.9,41.02l0.35-0.86c0.63-1.55,0.95-3.16,0.95-4.79 c0-7.05-5.74-12.79-12.79-12.79c-7.05,0-12.79,5.74-12.79,12.79c0,7.05,5.74,12.79,12.79,12.79c3.86,0,7.48-1.77,9.95-4.86 L64.87,42.67z M54.41,44.25c-4.9,0-8.88-3.98-8.88-8.88c0-1.64,1.33-2.97,2.97-2.97s2.97,1.33,2.97,2.97 c0,1.62,1.32,2.94,2.94,2.94c1.64,0,2.97,1.33,2.97,2.97S56.05,44.25,54.41,44.25z M48.5,34.4c-0.54,0-0.97,0.44-0.97,0.97 c0,3.79,3.09,6.88,6.88,6.88c0.54,0,0.97-0.44,0.97-0.97c0-0.54-0.44-0.97-0.97-0.97c-2.72,0-4.94-2.22-4.94-4.94 C49.47,34.84,49.04,34.4,48.5,34.4z" class="st0"/></g></svg>