<?xml version="1.0" encoding="utf-8"?>
<!-- Generator: Adobe Illustrator 27.2.0, SVG Export Plug-In . SVG Version: 6.00 Build 0)  -->
<svg version="1.1" id="Layer_1" xmlns="http://www.w3.org/2000/svg" xmlns:xlink="http://www.w3.org/1999/xlink" x="0px" y="0px"
	 viewBox="0 0 111.04 108.38" style="enable-background:new 0 0 111.04 108.38;" xml:space="preserve">
<style type="text/css">
	.st0{fill:#6A696E;}
	.st1{fill:#69696B;}
</style>
<g id="booking_3_">
	<path class="st0" d="M72.7,39.02H22.17v-1c0-4.67,3.55-8.53,8.09-9.03v-5.13c0-1.67,1.36-3.02,3.02-3.02
		c1.67,0,3.02,1.36,3.02,3.02v5.08h22.25v-5.08c0-1.67,1.36-3.02,3.02-3.02c1.67,0,3.02,1.36,3.02,3.02v5.13
		c4.55,0.49,8.1,4.36,8.1,9.04V39.02z M24.24,37.02h46.39c-0.49-3.44-3.45-6.09-7.02-6.09H62.6v-7.08c0-0.56-0.46-1.02-1.02-1.02
		s-1.02,0.46-1.02,1.02v7.08H34.3v-7.08c0-0.56-0.46-1.02-1.02-1.02s-1.02,0.46-1.02,1.02v7.08h-1
		C27.69,30.93,24.72,33.58,24.24,37.02z"/>
	<path class="st0" d="M59.77,79.47H31.25c-5.01,0-9.09-4.08-9.09-9.09V41.07H72.7v10.08h-1c-1.17,0-2.26,0.69-2.76,1.75l-4.31,9.18
		l-9.57,1.46c-1.13,0.17-2.06,0.96-2.43,2.04c-0.36,1.09-0.09,2.27,0.71,3.09l7.02,7.19L59.77,79.47z M24.17,43.07v27.31
		c0,3.91,3.18,7.09,7.09,7.09h26.81l0.15-0.93l-6.31-6.47c-1.33-1.36-1.78-3.32-1.17-5.12c0.6-1.8,2.14-3.1,4.02-3.39l8.52-1.3
		l3.86-8.21c0.68-1.46,2.02-2.49,3.57-2.8v-6.18H24.17z M35.3,71.36c-2.78,0-5.04-2.26-5.04-5.04c0-2.78,2.26-5.04,5.04-5.04
		s5.04,2.26,5.04,5.04C40.34,69.1,38.08,71.36,35.3,71.36z M35.3,63.28c-1.67,0-3.04,1.36-3.04,3.04s1.36,3.04,3.04,3.04
		c1.68,0,3.04-1.36,3.04-3.04S36.98,63.28,35.3,63.28z M47.44,59.23c-2.78,0-5.04-2.26-5.04-5.04c0-2.78,2.26-5.04,5.04-5.04
		s5.04,2.26,5.04,5.04C52.48,56.97,50.22,59.23,47.44,59.23z M47.44,51.16c-1.68,0-3.04,1.36-3.04,3.04s1.36,3.04,3.04,3.04
		c1.67,0,3.04-1.36,3.04-3.04S49.11,51.16,47.44,51.16z M35.29,59.23c-2.78,0-5.04-2.26-5.04-5.04c0-2.78,2.26-5.04,5.04-5.04
		s5.04,2.26,5.04,5.04C40.33,56.97,38.07,59.23,35.29,59.23z M35.29,51.16c-1.67,0-3.04,1.36-3.04,3.04s1.36,3.04,3.04,3.04
		s3.04-1.36,3.04-3.04S36.97,51.16,35.29,51.16z"/>
	<path class="st0" d="M83.01,88.41L71.7,82.16l-11.32,6.26l2.16-13.24l-9.1-9.32l12.58-1.92l5.68-12.1l5.68,12.1l12.58,1.92
		l-9.1,9.32L83.01,88.41z M71.7,79.87l8.68,4.8L78.72,74.5l7.08-7.26l-9.78-1.5l-4.32-9.21l-4.32,9.21l-9.78,1.5l7.08,7.26
		l-1.66,10.17L71.7,79.87z"/>
</g>
</svg>
