<svg xmlns="http://www.w3.org/2000/svg" xmlns:xlink="http://www.w3.org/1999/xlink" id="Layer_1" x="0" y="0" version="1.1" viewBox="0 0 300 100" style="enable-background:new 0 0 300 100" xml:space="preserve"><style type="text/css">.st0{fill:#cf3f3f}</style><g><path d="M4.17,55.11c0,0.6,0.3,1.19,0.75,1.64c0.45,0.45,1.04,0.75,1.64,0.75h25.78c0.6,0,1.19-0.3,1.64-0.75 c0.45-0.45,0.75-1.04,0.75-1.64V37.67h4.17v17.44c0,1.79-0.6,3.28-1.94,4.62c-1.34,1.34-2.83,1.94-4.62,1.94H6.56 c-1.79,0-3.43-0.6-4.62-1.94C0.6,58.53,0,56.9,0,55.11V37.67h4.17L4.17,55.11L4.17,55.11z" class="st0"/><path d="M81.97,57.49v4.17H44.71c-0.45,0-0.89-0.15-1.34-0.45c-0.45-0.3-0.6-0.6-0.75-1.19 c-0.15-0.45-0.15-0.89,0.15-1.34c0.15-0.45,0.45-0.75,0.89-1.04l29.21-15.95H43.52v-4.17h37.41c0.45,0,0.89,0.15,1.34,0.45 c0.45,0.3,0.6,0.6,0.75,1.04c0.15,0.45,0.15,0.89-0.15,1.34c-0.15,0.45-0.45,0.75-0.89,1.04l-29.21,16.1H81.97z" class="st0"/><path d="M90.91,55.11c0,0.6,0.3,1.19,0.75,1.64c0.45,0.45,1.04,0.75,1.64,0.75h25.78c0.6,0,1.19-0.3,1.64-0.75 c0.45-0.45,0.75-1.04,0.75-1.64V37.67h4.17v17.44c0,1.79-0.6,3.28-1.94,4.62s-2.83,1.94-4.62,1.94H93.44 c-1.79,0-3.43-0.6-4.62-1.94c-1.34-1.19-1.94-2.83-1.94-4.62V37.67h4.17L90.91,55.11L90.91,55.11z" class="st0"/><path d="M170.19,37.67v21.91l0,0c0,0.15,0,0.45,0,0.6c-0.15,0.45-0.3,0.89-0.75,1.19c-0.45,0.3-0.75,0.45-1.34,0.45 c-0.45,0-0.75-0.15-1.04-0.3l0,0l-33.53-18.63v18.63h-4.17V39.46c0-0.75,0.3-1.34,1.04-1.79c0.75-0.45,1.34-0.45,2.09,0 l33.53,18.63V37.67H170.19z" class="st0"/><path d="M176.6,39.61c0-0.6,0.15-1.04,0.6-1.49c0.45-0.45,0.89-0.6,1.49-0.6h35.02v4.17h-32.94v5.81h32.94v4.17h-32.94v9.99h-4.17 C176.6,61.66,176.6,39.61,176.6,39.61z"/><path d="M229.21,37.52v17.44c0,0.6,0.3,1.19,0.75,1.64s1.04,0.75,1.64,0.75h25.78v4.17h-25.78c-1.79,0-3.43-0.6-4.62-1.94 c-1.34-1.19-1.94-2.83-1.94-4.62V37.52H229.21L229.21,37.52z"/><path d="M300,55.11c0,1.79-0.6,3.28-1.94,4.62c-1.34,1.34-2.83,1.94-4.62,1.94h-25.78c-1.79,0-3.43-0.6-4.62-1.94 c-1.34-1.19-1.94-2.83-1.94-4.62V44.08c0-1.79,0.6-3.28,1.94-4.62c1.34-1.34,2.83-1.94,4.62-1.94h25.78c1.79,0,3.43,0.6,4.62,1.94 c1.34,1.19,1.94,2.83,1.94,4.62V55.11z M295.83,44.08c0-0.6-0.3-1.19-0.75-1.64c-0.45-0.45-1.04-0.75-1.64-0.75h-25.78 c-0.6,0-1.19,0.3-1.64,0.75c-0.45,0.45-0.75,1.04-0.75,1.64v11.03c0,0.6,0.3,1.19,0.75,1.64c0.45,0.45,1.04,0.75,1.64,0.75h25.78 c0.6,0,1.19-0.3,1.64-0.75c0.45-0.45,0.75-1.04,0.75-1.64V44.08z"/><path d="M176.6,69.26v-3.28H300v3.28H176.6z"/><g><rect width="4.17" height="4.02" x="217.29" y="37.67"/><rect width="4.17" height="16.99" x="217.29" y="44.67"/></g></g></svg>