<?xml version="1.0" encoding="utf-8"?>
<!-- Generator: Adobe Illustrator 27.2.0, SVG Export Plug-In . SVG Version: 6.00 Build 0)  -->
<svg version="1.1" id="Layer_1" xmlns="http://www.w3.org/2000/svg" xmlns:xlink="http://www.w3.org/1999/xlink" x="0px" y="0px"
	 viewBox="0 0 111.04 108.38" style="enable-background:new 0 0 111.04 108.38;" xml:space="preserve">
<style type="text/css">
	.st0{fill:#6A696E;}
	.st1{fill:#69696B;}
</style>
<g>
	<path class="st1" d="M66.62,21.19H43.94c-4.8,0-8.7,3.9-8.7,8.7V80c0,4.8,3.9,8.7,8.7,8.7h22.68c4.8,0,8.7-3.9,8.7-8.7V29.9
		C75.33,25.1,71.42,21.19,66.62,21.19z M73.09,80c0,3.56-2.9,6.46-6.46,6.46H43.94c-3.56,0-6.46-2.9-6.46-6.46V29.9
		c0-3.56,2.9-6.46,6.46-6.46h22.68c3.56,0,6.46,2.9,6.46,6.46V80z"/>
	<path class="st1" d="M65.66,27.79H44.91c-2.2,0-4,1.79-4,4v40.04c0,2.2,1.79,4,4,4h20.75c2.2,0,4-1.79,4-4V31.78
		C69.66,29.58,67.86,27.79,65.66,27.79z M67.42,71.83c0,0.97-0.79,1.76-1.76,1.76H44.91c-0.97,0-1.76-0.79-1.76-1.76V31.78
		c0-0.97,0.79-1.76,1.76-1.76h20.75c0.97,0,1.76,0.79,1.76,1.76V71.83z"/>
	<path class="st1" d="M55.28,78.11c-1.75,0-3.18,1.43-3.18,3.18c0,1.75,1.43,3.18,3.18,3.18s3.18-1.43,3.18-3.18
		C58.46,79.53,57.03,78.11,55.28,78.11z M55.28,81.83c-0.3,0-0.54-0.24-0.54-0.54c0-0.3,0.24-0.54,0.54-0.54
		c0.3,0,0.54,0.24,0.54,0.54C55.82,81.58,55.58,81.83,55.28,81.83z"/>
</g>
</svg>
