<svg xmlns="http://www.w3.org/2000/svg" xmlns:xlink="http://www.w3.org/1999/xlink" id="Layer_1" x="0" y="0" version="1.1" viewBox="0 0 111.04 108.38" style="enable-background:new 0 0 111.04 108.38" xml:space="preserve"><style type="text/css">.st0{fill:#6a696e}</style><path d="M45.94,91.53c-1.41,0-2.73-0.55-3.72-1.54L18.11,65.87c-0.99-0.99-1.54-2.31-1.54-3.72s0.55-2.73,1.54-3.72	l30.08-30.08c0.99-0.99,2.46-1.6,3.85-1.61h24.04c0.3,0,0.56,0.04,0.8,0.1l3.38-3.38c1.17-1.17,3.2-1.17,4.37,0l0,0c0,0,0,0,0,0	s0,0,0,0c0.58,0.58,0.91,1.36,0.91,2.19c0,0.83-0.32,1.6-0.91,2.19l-3.38,3.38c0.06,0.25,0.1,0.51,0.1,0.81v24.04	c0,1.39-0.62,2.86-1.61,3.85L49.67,89.99C48.67,90.98,47.35,91.53,45.94,91.53z M52.04,28.74c-0.85,0-1.83,0.41-2.44,1.02	L19.52,59.84c-0.62,0.62-0.96,1.44-0.96,2.31c0,0.87,0.34,1.69,0.96,2.31l24.12,24.12c1.23,1.23,3.38,1.23,4.61,0L78.33,58.5	c0.61-0.61,1.02-1.59,1.02-2.44V32.02c0-0.19-0.06-0.41-0.13-0.66l-0.2-0.74l4.2-4.2c0.21-0.21,0.32-0.48,0.32-0.77	s-0.11-0.57-0.32-0.77l0,0c-0.41-0.41-1.13-0.41-1.54,0l-4.2,4.2l-0.75-0.2c-0.25-0.07-0.46-0.13-0.64-0.13H52.04z M51.05,72.69	c-0.83,0-1.6-0.32-2.19-0.91L36.31,59.23c-0.58-0.58-0.91-1.36-0.91-2.19s0.32-1.6,0.91-2.19c1.17-1.17,3.2-1.17,4.37,0l12.56,12.56	c0.58,0.58,0.91,1.36,0.91,2.19s-0.32,1.6-0.91,2.19C52.65,72.37,51.88,72.69,51.05,72.69z M38.49,55.95	c-0.29,0-0.57,0.11-0.77,0.32c-0.43,0.43-0.43,1.12,0,1.54l12.56,12.56c0.41,0.41,1.13,0.41,1.55,0c0.21-0.21,0.32-0.48,0.32-0.77	s-0.11-0.57-0.32-0.77L39.27,56.27C39.06,56.06,38.79,55.95,38.49,55.95z M59.42,58.04c-5.17,0-9.37-4.2-9.37-9.37	s4.2-9.37,9.37-9.37c1.65,0,3.25,0.45,4.74,1.32l1.11,0.66l-4.54,4.54l-0.55-0.14c-0.12-0.03-0.24-0.07-0.36-0.1	c-0.15-0.05-0.31-0.1-0.4-0.1c-0.69,0-1.35,0.22-1.91,0.64c-0.68,0.51-1.12,1.25-1.24,2.1c-0.12,0.84,0.09,1.68,0.6,2.36	c0.61,0.81,1.54,1.28,2.55,1.28c0.69,0,1.35-0.22,1.91-0.64c1.04-0.78,1.49-2.1,1.16-3.37l-0.15-0.56l4.48-4.48l0.66,1.11	c0.88,1.49,1.32,3.08,1.32,4.74C68.79,53.84,64.59,58.04,59.42,58.04z M59.42,41.3c-4.06,0-7.37,3.31-7.37,7.37s3.31,7.37,7.37,7.37	c4.06,0,7.37-3.31,7.37-7.37c0-0.86-0.16-1.71-0.47-2.53l-1.78,1.78c0.28,1.87-0.48,3.75-2.01,4.9c-0.9,0.68-1.98,1.04-3.11,1.04	c-1.65,0-3.16-0.76-4.15-2.08c-0.83-1.11-1.18-2.47-0.98-3.85c0.2-1.37,0.92-2.58,2.02-3.41c0.9-0.68,1.98-1.04,3.11-1.04	c0.27,0,0.5,0.05,0.71,0.1l1.82-1.82C61.13,41.46,60.29,41.3,59.42,41.3z" class="st0"/></svg>